<?xml version="1.0" encoding="UTF-8"?>
<!DOCTYPE svg PUBLIC "-//W3C//DTD SVG 1.1//EN" "http://www.w3.org/Graphics/SVG/1.1/DTD/svg11.dtd">
<svg xmlns="http://www.w3.org/2000/svg" version="1.1" width="128px" height="128px" style="shape-rendering:geometricPrecision; text-rendering:geometricPrecision; image-rendering:optimizeQuality; fill-rule:evenodd; clip-rule:evenodd" xmlns:xlink="http://www.w3.org/1999/xlink">
<g><path style="opacity:0.947" fill="#e42626" d="M 62.5,-0.5 C 63.1667,-0.5 63.8333,-0.5 64.5,-0.5C 84.976,35.7788 105.476,72.1121 126,108.5C 126.667,109.5 126.667,110.5 126,111.5C 120.63,116.702 115.464,122.035 110.5,127.5C 109.833,127.5 109.167,127.5 108.5,127.5C 95.695,118.925 83.0283,110.092 70.5,101C 70.6667,100.5 70.8333,100 71,99.5C 78.4201,100.647 85.9201,100.813 93.5,100C 83.6112,83.0485 73.6112,66.2151 63.5,49.5C 53.3888,66.2151 43.3888,83.0485 33.5,100C 41.0799,100.813 48.5799,100.647 56,99.5C 56.1667,100 56.3333,100.5 56.5,101C 43.9717,110.092 31.305,118.925 18.5,127.5C 17.8333,127.5 17.1667,127.5 16.5,127.5C 11.5364,122.035 6.36972,116.702 1,111.5C 0.333333,110.5 0.333333,109.5 1,108.5C 21.524,72.1121 42.024,35.7788 62.5,-0.5 Z"/></g>
</svg>
